<svg width="300" height="300" viewBox="0 0 300 300" fill="none" xmlns="http://www.w3.org/2000/svg">
<g clip-path="url(#clip0_1930_139106)">
<mask id="mask0_1930_139106" style="mask-type:alpha" maskUnits="userSpaceOnUse" x="0" y="0" width="300" height="300">
<path d="M150 300C67.09 300 0 232.81 0 150C0 67.19 67.19 0 150 0C232.81 0 300 67.19 300 150C300.1 232.91 232.91 300 150 300Z" fill="#F4DA92"/>
</mask>
<g mask="url(#mask0_1930_139106)">
<path d="M150 300C67.09 300 0 232.81 0 150C0 67.19 67.19 0 150 0C232.81 0 300 67.19 300 150C300.1 232.91 232.91 300 150 300Z" fill="#F4DA92"/>
</g>
</g>
<defs>
<clipPath id="clip0_1930_139106">
<rect width="300" height="300" fill="white"/>
</clipPath>
</defs>
</svg>
