<svg width="300" height="300" viewBox="0 0 300 300" fill="none" xmlns="http://www.w3.org/2000/svg">
<g clip-path="url(#clip0_1930_139064)">
<mask id="mask0_1930_139064" style="mask-type:alpha" maskUnits="userSpaceOnUse" x="0" y="0" width="300" height="300">
<path d="M150 300C67.09 300 0 232.81 0 150C0 67.19 67.19 0 150 0C232.81 0 300 67.19 300 150C300.1 232.91 232.91 300 150 300Z" fill="#F4DA92"/>
</mask>
<g mask="url(#mask0_1930_139064)">
<path d="M60 233.84C60 233.84 63.7 231.04 70.6 235.24C83.5 243.14 99.9 285.34 64.7 314.84C64.7 314.84 58.4 351.64 64.7 358.64C64.7 358.64 179.9 364.44 229.6 358.64C229.6 358.64 230.4 336.04 227.2 312.94C223.2 283.64 218.1 254.74 199.2 228.14C196.5 224.34 191.5 222.64 188.4 221.74L174.8 217.84C174.8 217.84 186.8 252.54 153.5 244.54C133.1 239.64 116.2 220.24 102.2 211.34C98.9 209.24 94.4 209.94 91.5 211.14C84.9 213.94 60.5 228.54 60 233.84Z" fill="#444444"/>
<mask id="mask1_1930_139064" style="mask-type:alpha" maskUnits="userSpaceOnUse" x="60" y="209" width="170" height="153">
<path d="M60 233.84C60 233.84 63.7 231.04 70.6 235.24C83.5 243.14 99.9 285.34 64.7 314.84C64.7 314.84 58.4 351.64 64.7 358.64C64.7 358.64 179.9 364.44 229.6 358.64C229.6 358.64 230.4 336.04 227.2 312.94C223.2 283.64 218.1 254.74 199.2 228.14C196.5 224.34 191.5 222.64 188.4 221.74L174.8 217.84C174.8 217.84 186.8 252.54 153.5 244.54C133.1 239.64 116.2 220.24 102.2 211.34C98.9 209.24 94.4 209.94 91.5 211.14C84.9 213.94 60.5 228.54 60 233.84Z" fill="#444444"/>
</mask>
<g mask="url(#mask1_1930_139064)">
<path d="M180.401 223.08C184.511 224.13 188.441 226.65 192.831 229.6C197.121 232.49 201.831 235.76 207.181 237.81L208.611 234.07C203.771 232.22 199.471 229.24 195.061 226.28C190.751 223.38 186.281 220.45 181.391 219.2L180.401 223.08ZM149.981 223.33C154.851 223.86 160.171 223.09 165.221 222.59C170.391 222.08 175.471 221.82 180.411 223.08L181.401 219.2C175.741 217.76 170.061 218.1 164.841 218.61C159.491 219.14 154.761 219.82 150.431 219.35L150.001 223.33H149.981ZM120.351 216.94C124.421 216.62 128.801 217.8 133.821 219.34C138.731 220.85 144.191 222.7 149.981 223.33L150.411 219.35C145.101 218.78 140.071 217.08 135.001 215.51C130.051 213.98 124.981 212.56 120.041 212.94L120.351 216.93V216.94ZM92.2907 228.05C96.5007 226.73 101.021 223.99 105.461 221.72C110.051 219.38 114.891 217.35 120.341 216.93L120.031 212.94C113.781 213.42 108.371 215.74 103.641 218.15C98.7607 220.64 94.8707 223.04 91.0907 224.22L92.2807 228.04L92.2907 228.05ZM63.3007 236.05C66.0707 233.65 68.0407 232.39 69.6807 231.7C71.2807 231.02 72.6807 230.84 74.4407 230.77C78.1307 230.62 82.9907 231 92.2907 228.05L91.0807 224.24C82.3807 226.99 78.0907 226.62 74.2807 226.77C72.2807 226.85 70.3507 227.08 68.1307 228.01C65.9507 228.93 63.6107 230.48 60.6807 233.03L63.3007 236.05ZM207.171 237.81C208.201 238.2 209.361 237.69 209.751 236.66C210.141 235.63 209.631 234.47 208.601 234.08L207.171 237.82V237.81ZM180.881 221.14L181.381 219.2L180.891 221.14H180.881ZM150.181 221.34L150.401 219.35L150.191 221.34H150.181ZM120.181 214.94L120.331 216.93L120.171 214.94H120.181ZM60.6707 233.03C59.8407 233.75 59.7507 235.02 60.4707 235.85C61.1907 236.68 62.4607 236.77 63.2907 236.05L60.6707 233.03Z" fill="#6D5F5E"/>
<path d="M183.781 236.2C188.091 237.12 192.201 239.54 196.771 242.38C201.231 245.15 206.101 248.3 211.561 250.14L212.841 246.35C207.911 244.69 203.471 241.84 198.881 238.98C194.391 236.19 189.711 233.37 184.621 232.28L183.791 236.19L183.781 236.2ZM152.831 237.54C157.821 237.96 163.221 236.98 168.351 236.28C173.611 235.56 178.751 235.08 183.771 236.2L184.641 232.3C178.861 231.02 173.101 231.59 167.811 232.32C162.391 233.07 157.591 233.93 153.181 233.56L152.841 237.55L152.831 237.54ZM122.551 231.34C126.731 231.02 131.231 232.22 136.381 233.76C141.401 235.26 146.981 237.07 152.841 237.54L153.161 233.55C147.821 233.12 142.701 231.47 137.521 229.93C132.471 228.42 127.271 226.97 122.251 227.35L122.551 231.34ZM93.6107 241.98C98.0007 240.82 102.691 238.18 107.301 235.98C112.051 233.71 117.021 231.72 122.541 231.35L122.271 227.36C115.981 227.79 110.451 230.05 105.581 232.38C100.571 234.78 96.5007 237.09 92.5907 238.13L93.6107 242V241.98ZM63.3907 247.62C66.5207 245.58 68.7007 244.58 70.4707 244.1C72.2107 243.62 73.6707 243.59 75.4607 243.68C79.2407 243.87 83.9907 244.51 93.6107 241.98L92.5907 238.11C83.6107 240.48 79.4007 239.87 75.6607 239.68C73.6907 239.58 71.7407 239.59 69.4007 240.24C67.0907 240.88 64.5207 242.11 61.2007 244.27L63.3807 247.62H63.3907ZM211.561 250.14C212.611 250.49 213.741 249.93 214.091 248.88C214.441 247.83 213.881 246.7 212.831 246.35L211.551 250.14H211.561ZM184.201 234.24L183.771 236.19C183.771 236.19 183.781 236.19 183.791 236.19L184.211 234.23L184.201 234.24ZM153.001 235.54L153.171 233.55L153.011 235.54H153.001ZM122.401 229.34L122.541 231.34C122.541 231.34 122.551 231.34 122.561 231.34L122.411 229.35L122.401 229.34ZM61.2107 244.26C60.2807 244.86 60.0207 246.1 60.6307 247.03C61.2307 247.96 62.4707 248.22 63.4007 247.61L61.2207 244.26H61.2107Z" fill="#6D5F5E"/>
<path d="M187.151 249.31C191.611 250.09 195.951 252.41 200.731 255.1C205.401 257.73 210.481 260.69 216.051 262.27L217.141 258.42C212.121 257 207.491 254.31 202.691 251.61C197.991 248.97 193.081 246.29 187.841 245.37L187.151 249.31ZM155.571 251.74C160.711 252.06 166.211 250.92 171.441 250.03C176.801 249.12 182.021 248.43 187.151 249.32L187.831 245.38C181.961 244.37 176.141 245.18 170.771 246.09C165.281 247.03 160.371 248.03 155.821 247.75L155.571 251.74ZM124.521 245.64C128.871 245.37 133.511 246.6 138.771 248.13C143.921 249.62 149.601 251.38 155.571 251.74L155.821 247.75C150.391 247.42 145.171 245.82 139.891 244.29C134.731 242.79 129.421 241.33 124.271 241.65L124.521 245.64ZM94.701 255.9C99.281 254.94 104.141 252.41 108.931 250.24C113.851 248.01 118.951 246.01 124.531 245.64L124.261 241.65C117.931 242.08 112.281 244.33 107.281 246.6C102.141 248.93 97.901 251.15 93.881 251.99L94.701 255.91V255.9ZM63.361 259.14C66.781 257.49 69.131 256.76 71.011 256.48C72.871 256.2 74.381 256.33 76.221 256.57C80.091 257.08 84.781 257.96 94.701 255.9L93.881 251.98C84.611 253.91 80.441 253.09 76.741 252.61C74.791 252.35 72.831 252.16 70.411 252.53C68.011 252.89 65.261 253.79 61.621 255.54L63.361 259.14ZM216.051 262.26C217.111 262.56 218.221 261.94 218.521 260.88C218.821 259.82 218.201 258.71 217.141 258.41L216.051 262.26ZM187.491 247.34L187.841 245.37L187.501 247.34H187.491ZM61.621 255.54C60.631 256.02 60.211 257.22 60.691 258.21C61.171 259.2 62.371 259.62 63.361 259.14L61.621 255.54Z" fill="#6D5F5E"/>
<path d="M190.431 262.431C195.101 263.081 199.661 265.291 204.641 267.821C209.511 270.301 214.771 273.081 220.461 274.401L221.361 270.501C216.251 269.321 211.461 266.801 206.451 264.251C201.551 261.761 196.411 259.22 190.981 258.46L190.431 262.421V262.431ZM158.321 265.951C163.631 266.161 169.221 264.841 174.541 263.751C179.981 262.641 185.261 261.741 190.431 262.441L190.971 258.481C185.051 257.681 179.171 258.731 173.741 259.841C168.181 260.981 163.181 262.15 158.481 261.96L158.321 265.96V265.951ZM126.521 259.951C131.021 259.671 135.811 260.961 141.211 262.501C146.491 264.011 152.291 265.741 158.331 265.951L158.471 261.951C153.011 261.761 147.711 260.191 142.311 258.651C137.031 257.141 131.581 255.631 126.281 255.951L126.521 259.941V259.951ZM95.7305 269.731C100.481 268.931 105.511 266.531 110.481 264.441C115.581 262.291 120.841 260.33 126.531 259.96L126.271 255.971C119.861 256.391 114.081 258.591 108.921 260.761C103.641 262.991 99.2205 265.091 95.0705 265.791L95.7305 269.731ZM63.4605 270.74C67.0905 269.46 69.5705 268.981 71.5405 268.891C73.5005 268.801 75.0505 269.081 76.9305 269.471C80.8805 270.291 85.5405 271.381 95.7205 269.721L95.0805 265.77C85.5605 267.32 81.4205 266.31 77.7405 265.55C75.8105 265.15 73.8405 264.781 71.3605 264.891C68.8905 265.001 66.0005 265.59 62.1305 266.96L63.4605 270.731V270.74ZM220.441 274.401C221.521 274.651 222.591 273.981 222.841 272.901C223.091 271.821 222.421 270.751 221.341 270.501L220.441 274.401ZM158.391 263.951L158.471 261.951H158.461L158.391 263.951ZM126.391 257.951L126.271 255.951L126.401 257.951H126.391ZM95.3905 267.751L95.7105 269.721H95.7205L95.3905 267.751ZM62.1205 266.96C61.0805 267.33 60.5305 268.471 60.9005 269.511C61.2705 270.551 62.4105 271.101 63.4505 270.731L62.1205 266.96Z" fill="#6D5F5E"/>
<path d="M193.71 275.74C198.58 276.2 203.38 278.28 208.58 280.64C213.67 282.96 219.14 285.56 224.94 286.61L225.66 282.67C220.46 281.72 215.48 279.38 210.24 276.99C205.12 274.66 199.72 272.28 194.09 271.74L193.71 275.72V275.74ZM160.96 280.25C166.47 280.36 172.16 278.87 177.57 277.61C183.1 276.32 188.43 275.23 193.71 275.74L194.1 271.76C188.08 271.17 182.16 272.43 176.66 273.72C171.04 275.03 165.93 276.35 161.04 276.26L160.96 280.26V280.25ZM128.4 274.15C133.01 273.92 137.97 275.26 143.51 276.83C148.93 278.36 154.85 280.1 160.95 280.25L161.05 276.25C155.55 276.11 150.13 274.54 144.59 272.97C139.18 271.44 133.58 269.88 128.2 270.15L128.4 274.15ZM96.6398 283.34C101.57 282.75 106.81 280.46 111.96 278.43C117.25 276.35 122.66 274.44 128.4 274.15L128.2 270.15C121.74 270.47 115.8 272.61 110.49 274.7C105.04 276.85 100.43 278.85 96.1598 279.36L96.6298 283.33L96.6398 283.34ZM63.5698 282.3C67.3898 281.38 69.9898 281.16 72.0498 281.26C74.0998 281.36 75.6998 281.78 77.6198 282.3C81.6298 283.39 86.2798 284.63 96.6498 283.34L96.1598 279.37C86.4298 280.58 82.3298 279.43 78.6698 278.44C76.7498 277.92 74.7798 277.39 72.2498 277.27C69.7198 277.15 66.7198 277.44 62.6398 278.42L63.5798 282.31L63.5698 282.3ZM224.94 286.62C226.03 286.82 227.07 286.1 227.27 285.01C227.47 283.92 226.75 282.88 225.66 282.68L224.94 286.62ZM161 278.25L160.95 280.25H160.96L161 278.25ZM96.3998 281.35L96.1598 279.36L96.4098 281.35H96.3998ZM62.6298 278.41C61.5598 278.67 60.8898 279.75 61.1498 280.82C61.4098 281.89 62.4898 282.56 63.5598 282.3L62.6198 278.41H62.6298Z" fill="#6D5F5E"/>
<path d="M197.07 289.041C202.15 289.371 207.21 291.311 212.64 293.481C217.96 295.601 223.65 297.951 229.56 298.631L230.02 294.661C224.74 294.051 219.57 291.941 214.12 289.761C208.78 287.631 203.14 285.421 197.32 285.051L197.06 289.041H197.07ZM163.58 294.541C169.26 294.591 175.08 292.951 180.61 291.501C186.26 290.021 191.69 288.711 197.08 289.041L197.32 285.051C191.21 284.681 185.19 286.171 179.59 287.641C173.87 289.141 168.64 290.601 163.62 290.551L163.58 294.551V294.541ZM130.28 288.341C135.05 288.151 140.13 289.571 145.79 291.181C151.33 292.751 157.37 294.491 163.58 294.541L163.61 290.541C158.03 290.491 152.51 288.931 146.88 287.331C141.37 285.761 135.65 284.131 130.12 284.341L130.28 288.341ZM97.4699 296.931C102.55 296.501 107.97 294.341 113.31 292.401C118.78 290.411 124.37 288.571 130.28 288.331L130.12 284.331C123.53 284.591 117.42 286.651 111.94 288.641C106.33 290.681 101.55 292.571 97.1299 292.941L97.4699 296.931ZM63.6999 293.811C67.6899 293.211 70.3999 293.201 72.5199 293.471C74.6499 293.741 76.2699 294.291 78.2099 294.941C82.2599 296.291 86.8799 297.751 97.4499 296.921L97.1399 292.931C87.2099 293.701 83.1299 292.361 79.4799 291.141C77.5699 290.501 75.5899 289.821 73.0199 289.491C70.4399 289.161 67.3499 289.201 63.0899 289.841L63.6899 293.791L63.6999 293.811ZM229.57 298.621C230.67 298.751 231.66 297.961 231.79 296.861C231.92 295.761 231.13 294.771 230.03 294.641L229.57 298.611V298.621ZM197.2 287.031L197.33 285.031L197.21 287.031H197.2ZM97.2999 294.931L97.4599 296.921H97.4699L97.2999 294.931ZM63.0999 289.851C62.0099 290.021 61.2599 291.031 61.4199 292.131C61.5899 293.221 62.5999 293.971 63.6999 293.811L63.0999 289.861V289.851Z" fill="#6D5F5E"/>
<path d="M200.351 302.64C205.641 302.78 210.951 304.56 216.611 306.53C222.151 308.46 228.051 310.57 234.081 310.94L234.331 306.95C228.961 306.62 223.611 304.73 217.931 302.76C212.371 300.83 206.471 298.81 200.461 298.65L200.351 302.65V302.64ZM166.201 309.04C172.041 309.04 177.981 307.26 183.621 305.65C189.391 304 194.901 302.5 200.341 302.64L200.441 298.64C194.291 298.48 188.201 300.18 182.511 301.8C176.701 303.46 171.351 305.04 166.191 305.04V309.04H166.201ZM132.041 302.54C137.031 302.45 142.271 303.96 148.061 305.64C153.731 307.28 159.871 309.04 166.201 309.04V305.04C160.531 305.04 154.921 303.46 149.171 301.79C143.541 300.16 137.681 298.43 131.971 298.54L132.041 302.54ZM98.1808 310.44C103.431 310.23 109.061 308.2 114.591 306.35C120.261 304.46 126.031 302.68 132.041 302.54L131.951 298.54C125.271 298.7 118.981 300.67 113.331 302.55C107.541 304.48 102.571 306.25 98.0208 306.44L98.1808 310.44ZM63.7408 305.44C67.8608 305.15 70.6408 305.36 72.8208 305.79C75.0108 306.23 76.6608 306.89 78.6308 307.66C82.7208 309.24 87.3708 310.86 98.1808 310.44L98.0308 306.44C87.8408 306.83 83.7408 305.34 80.0808 303.92C78.1708 303.18 76.2008 302.38 73.6108 301.86C71.0108 301.34 67.8508 301.13 63.4708 301.44L63.7508 305.43L63.7408 305.44ZM234.081 310.94C235.181 311.01 236.131 310.17 236.201 309.07C236.271 307.97 235.431 307.02 234.331 306.95L234.081 310.94ZM132.001 300.54L131.961 298.54L132.011 300.54H132.001ZM63.4608 301.44C62.3608 301.52 61.5308 302.47 61.6108 303.58C61.6908 304.68 62.6408 305.51 63.7508 305.43L63.4708 301.44H63.4608Z" fill="#6D5F5E"/>
</g>
</g>
</g>
<defs>
<clipPath id="clip0_1930_139064">
<rect width="300" height="300" fill="white"/>
</clipPath>
</defs>
</svg>
