<svg width="300" height="300" viewBox="0 0 300 300" fill="none" xmlns="http://www.w3.org/2000/svg">
<g clip-path="url(#clip0_1930_138938)">
<mask id="mask0_1930_138938" style="mask-type:alpha" maskUnits="userSpaceOnUse" x="0" y="0" width="300" height="300">
<path d="M150 300C67.09 300 0 232.81 0 150C0 67.19 67.19 0 150 0C232.81 0 300 67.19 300 150C300.1 232.91 232.91 300 150 300Z" fill="#F4DA92"/>
</mask>
<g mask="url(#mask0_1930_138938)">
<path d="M172.64 129.51C172.626 128.51 172.62 128.01 172.62 128.01C172.62 128.01 172.6 128.01 172.58 128.01C172.54 128.01 172.47 128.01 172.39 128.01C172.21 128.01 171.94 127.99 171.59 127.95C170.88 127.88 169.86 127.74 168.62 127.44C166.14 126.84 162.81 125.61 159.45 123.11L157.66 125.51C161.4 128.31 165.13 129.68 167.92 130.35C169.32 130.69 170.48 130.85 171.31 130.93C171.72 130.97 172.05 130.99 172.29 131C172.41 131 172.5 131 172.56 131C172.59 131 172.62 131 172.64 131H172.66C172.66 131 172.653 130.5 172.64 129.5V129.51ZM159.44 123.11C158.78 122.61 157.84 122.75 157.34 123.41C156.84 124.07 156.98 125.01 157.64 125.51L159.43 123.11H159.44ZM172.66 131.01C173.49 131 174.15 130.32 174.14 129.49C174.13 128.66 173.45 128 172.62 128.01L172.66 131.01Z" fill="#423232"/>
<path d="M202.341 131.11C202.521 132.097 202.611 132.59 202.611 132.59C202.611 132.59 202.621 132.59 202.631 132.59C202.651 132.59 202.671 132.59 202.701 132.58C202.761 132.57 202.841 132.55 202.951 132.53C203.161 132.49 203.471 132.42 203.841 132.34C204.581 132.17 205.591 131.91 206.671 131.55C207.751 131.2 208.931 130.74 210.011 130.17C211.061 129.61 212.131 128.88 212.851 127.92L210.451 126.12C210.121 126.56 209.501 127.04 208.611 127.52C207.741 127.98 206.731 128.37 205.751 128.7C204.771 129.02 203.851 129.26 203.171 129.42C202.831 129.5 202.561 129.56 202.371 129.6C202.281 129.62 202.201 129.63 202.161 129.64C202.141 129.64 202.121 129.64 202.111 129.64C202.111 129.64 202.111 129.64 202.101 129.64C202.101 129.64 202.191 130.134 202.371 131.12L202.341 131.11ZM212.841 127.91C213.341 127.25 213.201 126.31 212.541 125.81C211.881 125.31 210.941 125.45 210.441 126.11L212.841 127.91ZM202.071 129.63C201.251 129.78 200.711 130.56 200.861 131.37C201.011 132.19 201.791 132.73 202.601 132.58L202.071 129.63Z" fill="#423232"/>
<path d="M177.439 121.81C179.339 122.91 181.739 121.41 181.839 119.11C181.839 117.91 181.639 116.61 180.839 115.51C178.439 112.31 166.739 107.41 158.639 109.51C151.639 111.31 168.739 116.81 177.439 121.81Z" fill="#423232"/>
<path d="M208.14 123.01C206.74 124.11 204.44 122.81 204.14 120.71C203.94 119.61 204.04 118.41 204.54 117.41C206.14 114.41 213.54 110.31 219.54 112.31C224.74 114.21 214.84 118.11 208.14 123.01Z" fill="#423232"/>
<path d="M161.34 126.11C160.54 126.81 160.04 127.91 159.94 129.01L159.84 131.81C159.74 134.21 161.54 136.21 163.84 136.31C166.24 136.41 168.24 134.61 168.34 132.31L168.44 129.51V129.21C165.84 129.01 163.54 127.91 161.34 126.11Z" fill="#423232"/>
<path d="M202.339 130.91V131.11L202.239 133.71C202.139 135.91 203.839 137.81 206.039 137.91C208.239 138.01 210.139 136.31 210.239 134.11L210.339 131.51C210.439 130.51 210.039 129.61 209.539 128.91C207.339 130.21 204.939 130.51 202.339 130.91Z" fill="#423232"/>
</g>
</g>
<defs>
<clipPath id="clip0_1930_138938">
<rect width="300" height="300" fill="white"/>
</clipPath>
</defs>
</svg>
