<svg width="300" height="300" viewBox="0 0 300 300" fill="none" xmlns="http://www.w3.org/2000/svg">
<g clip-path="url(#clip0_1930_139022)">
<mask id="mask0_1930_139022" style="mask-type:alpha" maskUnits="userSpaceOnUse" x="0" y="0" width="300" height="300">
<path d="M150 300C67.09 300 0 232.81 0 150C0 67.19 67.19 0 150 0C232.81 0 300 67.19 300 150C300.1 232.91 232.91 300 150 300Z" fill="#F4DA92"/>
</mask>
<g mask="url(#mask0_1930_139022)">
<path d="M191.909 167.6C191.909 167.6 188.209 159.7 174.509 164.6C165.709 167.8 157.109 172.8 152.309 167.6C152.309 167.6 154.809 180.6 170.409 183.4C189.609 186.7 193.709 173.5 191.909 167.6Z" fill="#423232"/>
<path d="M191.111 166.4C191.111 166.4 196.811 161 202.311 166.1C207.311 170.7 209.711 171.4 211.511 168.6C211.511 168.6 211.911 179.6 203.211 181C193.711 182.6 190.211 175 190.211 175" fill="#423232"/>
</g>
</g>
<defs>
<clipPath id="clip0_1930_139022">
<rect width="300" height="300" fill="white"/>
</clipPath>
</defs>
</svg>
