<svg width="300" height="300" viewBox="0 0 300 300" fill="none" xmlns="http://www.w3.org/2000/svg">
<g clip-path="url(#clip0_1930_138854)">
<path d="M236.079 89.4498C236.079 76.8498 227.579 66.3498 216.079 63.0498C216.679 60.5498 216.779 57.9498 216.179 55.2498C214.179 46.5498 206.379 40.4498 197.479 41.0498C193.979 41.2498 190.679 42.5498 187.979 44.5498C183.779 34.8498 174.079 28.0498 162.879 28.0498C150.979 28.0498 140.879 35.6498 137.079 46.2498C132.879 41.2498 126.579 38.0498 119.579 38.0498C107.379 38.0498 97.3789 47.6498 96.7789 59.7498C94.8789 59.1498 92.7789 58.8498 90.6789 58.9498C82.5789 59.4498 75.9789 66.0498 75.3789 74.1498C75.1789 76.8498 75.6789 79.4498 76.6789 81.8498C65.2789 83.0498 56.3789 92.7498 56.3789 104.45C56.3789 113.25 61.3789 120.95 68.7789 124.75C65.7789 127.75 63.8789 131.85 63.8789 136.35C63.8789 144.75 70.2789 151.75 78.4789 152.65C77.9789 154.25 77.7789 156.15 78.3789 158.05C79.2789 161.35 81.9789 163.95 85.2789 164.65C87.2789 165.05 89.1789 164.85 90.8789 164.15C91.7789 165.45 92.6789 166.55 93.4789 167.55C94.4789 168.75 95.2789 169.85 96.0789 170.95C100.679 177.55 111.179 174.65 111.579 166.65V166.45C86.5789 156.85 91.0789 128.95 103.279 127.35C116.079 125.75 120.079 137.15 120.779 139.95C134.479 131.15 114.979 99.4498 135.079 90.0498C152.979 81.7498 171.779 94.3498 194.779 97.4498C203.279 98.6498 211.279 90.2498 214.879 94.9498C215.579 97.0498 216.179 99.1498 216.679 101.35C218.279 108.45 219.079 114.45 216.379 129.65C222.979 126.05 226.179 120.65 226.779 115.35C226.979 113.55 226.979 111.65 226.879 109.85C232.479 104.95 236.079 97.6498 236.079 89.4498Z" fill="#423232"/>
</g>
<defs>
<clipPath id="clip0_1930_138854">
<rect width="300" height="300" fill="white"/>
</clipPath>
</defs>
</svg>
