<svg width="300" height="300" viewBox="0 0 300 300" fill="none" xmlns="http://www.w3.org/2000/svg">
<g clip-path="url(#clip0_1930_138980)">
<path d="M193.001 185.22C193.101 188.52 188.201 196.92 178.701 193.02C169.601 189.32 166.901 171.92 179.901 180.22C186.701 184.52 190.801 185.22 193.001 185.22Z" fill="white"/>
<path d="M178.129 194.41C183.419 196.58 187.609 195.32 190.419 192.93C191.789 191.77 192.809 190.36 193.479 189.01C194.139 187.7 194.529 186.31 194.489 185.17L191.489 185.26C191.499 185.72 191.319 186.6 190.789 187.66C190.279 188.69 189.499 189.76 188.469 190.63C186.479 192.32 183.479 193.35 179.259 191.62L178.119 194.4L178.129 194.41ZM180.709 178.96C177.419 176.85 174.619 176.01 172.469 176.79C170.109 177.65 169.449 180.06 169.549 182.19C169.649 184.39 170.539 186.91 171.979 189.11C173.419 191.32 175.509 193.34 178.139 194.41L179.269 191.63C177.349 190.85 175.689 189.31 174.489 187.47C173.289 185.63 172.619 183.62 172.549 182.05C172.469 180.41 173.009 179.79 173.509 179.61C174.219 179.35 175.929 179.45 179.089 181.48L180.709 178.96ZM194.899 184.82C194.419 183.94 194.179 183.5 194.179 183.5C194.179 183.5 194.189 183.5 194.199 183.5H194.209C194.209 183.5 194.199 183.5 194.169 183.52C194.109 183.54 193.979 183.58 193.779 183.62C193.379 183.7 192.669 183.77 191.619 183.64C189.499 183.39 185.969 182.34 180.699 178.98L179.079 181.51C184.609 185.04 188.569 186.3 191.259 186.62C192.609 186.78 193.619 186.71 194.349 186.57C194.709 186.5 194.989 186.42 195.199 186.34C195.299 186.3 195.389 186.27 195.459 186.23C195.489 186.21 195.519 186.2 195.549 186.19C195.559 186.19 195.569 186.18 195.579 186.17C195.579 186.17 195.579 186.17 195.589 186.17C195.589 186.17 195.349 185.73 194.869 184.85L194.899 184.82ZM194.499 185.17C194.469 184.34 193.779 183.69 192.949 183.72C192.119 183.75 191.469 184.44 191.499 185.27L194.499 185.18V185.17ZM178.699 193.02L179.269 191.63L178.709 193.02H178.699ZM195.619 186.14C196.349 185.74 196.609 184.83 196.219 184.1C195.829 183.37 194.909 183.11 194.179 183.5L195.619 186.13V186.14Z" fill="#423232"/>
<path d="M180.109 188.3C180.209 188.29 180.249 188.28 180.479 188.41C180.639 188.5 180.799 188.61 181.089 188.79C181.359 188.96 181.679 189.16 182.079 189.37C183.709 190.23 186.249 191.06 191.159 191.22L191.249 188.22C186.659 188.08 184.599 187.31 183.479 186.72C183.189 186.57 182.939 186.41 182.699 186.26C182.479 186.12 182.209 185.94 181.949 185.8C181.349 185.46 180.639 185.2 179.689 185.34L180.109 188.31V188.3ZM171.099 182.72C170.546 183.553 170.269 183.97 170.269 183.97C170.269 183.97 170.269 183.97 170.289 183.98C170.299 183.98 170.319 184 170.349 184.02C170.399 184.05 170.479 184.1 170.579 184.17C170.779 184.3 171.059 184.47 171.399 184.69C172.079 185.11 173.019 185.68 174.019 186.23C175.019 186.78 176.119 187.34 177.119 187.74C177.619 187.94 178.129 188.11 178.609 188.22C179.059 188.32 179.629 188.4 180.189 188.29L179.599 185.35C179.649 185.34 179.569 185.36 179.269 185.3C178.999 185.24 178.649 185.13 178.229 184.96C177.399 184.63 176.419 184.14 175.469 183.61C174.529 183.09 173.639 182.55 172.979 182.15C172.649 181.95 172.389 181.78 172.199 181.66C172.109 181.6 172.039 181.55 171.989 181.52C171.969 181.5 171.949 181.49 171.939 181.48H171.929C171.929 181.48 171.652 181.897 171.099 182.73V182.72ZM191.149 191.22C191.979 191.25 192.669 190.6 192.699 189.77C192.729 188.94 192.079 188.25 191.249 188.22L191.159 191.22H191.149ZM179.899 186.82L179.689 185.34C179.689 185.34 179.639 185.34 179.609 185.35L179.899 186.82ZM171.929 181.47C171.239 181.01 170.309 181.2 169.849 181.89C169.389 182.58 169.579 183.51 170.269 183.97L171.929 181.47Z" fill="#423232"/>
</g>
<defs>
<clipPath id="clip0_1930_138980">
<rect width="300" height="300" fill="white"/>
</clipPath>
</defs>
</svg>
