<svg width="300" height="300" viewBox="0 0 300 300" fill="none" xmlns="http://www.w3.org/2000/svg">
<g clip-path="url(#clip0_1930_138896)">
<mask id="mask0_1930_138896" style="mask-type:alpha" maskUnits="userSpaceOnUse" x="0" y="0" width="300" height="300">
<path d="M150 300C67.09 300 0 232.81 0 150C0 67.19 67.19 0 150 0C232.81 0 300 67.19 300 150C300.1 232.91 232.91 300 150 300Z" fill="#F4DA92"/>
</mask>
<g mask="url(#mask0_1930_138896)">
<path d="M233.201 274.9C232.501 275.4 231.701 275.9 231.001 276.4C230.201 276.9 229.501 277.4 228.701 277.8C228.001 278.2 227.401 278.6 226.701 279C226.601 279.1 226.501 279.1 226.401 279.2C224.101 280.6 221.701 281.9 219.301 283.1C218.601 283.5 217.801 283.9 217.101 284.2C217.101 284.2 217.001 284.3 216.901 284.3C216.101 284.7 215.301 285.1 214.501 285.5C212.901 286.3 211.201 287 209.601 287.7C208.801 288.1 207.901 288.4 207.101 288.7C206.301 289 205.401 289.4 204.601 289.7C203.801 290 202.901 290.4 202.101 290.7H202.001C201.201 291 200.301 291.3 199.501 291.6C197.701 292.2 195.801 292.8 194.001 293.4C193.401 293.6 192.701 293.8 192.101 294C190.201 294.6 188.301 295.1 186.401 295.5C185.701 295.7 185.001 295.8 184.201 296C182.401 296.4 180.501 296.8 178.701 297.2C178.301 297.3 178.001 297.3 177.601 297.4C177.001 297.5 176.301 297.6 175.701 297.7C174.801 297.8 174.001 298 173.101 298.1C172.701 298.2 172.301 298.2 171.901 298.3C171.401 298.4 170.801 298.5 170.201 298.5C168.601 298.7 166.901 298.9 165.301 299.1C164.801 299.2 164.201 299.2 163.701 299.3H163.601C162.901 299.4 162.201 299.4 161.501 299.5C160.801 299.6 160.101 299.6 159.401 299.6C159.001 299.6 158.501 299.7 158.101 299.7C157.301 299.7 156.601 299.8 155.901 299.8C154.901 299.8 154.001 299.9 153.001 299.9H148.001C105.901 299.3 67.9008 281.4 40.9008 253C40.9008 253 40.9008 252.9 40.8008 252.9C43.9008 246.8 55.4008 235.8 67.4008 226.7C82.6008 215.2 104.101 208.1 104.101 208.1C104.101 208.1 118.201 205.8 170.501 216.7C210.401 225.1 227.401 259.2 233.201 274.9Z" fill="#C99589"/>
<path d="M181.602 244.4C179.502 254.7 165.902 260.8 143.002 251.6C114.902 240.2 104.102 208.1 104.102 208.1C102.602 185.1 99.1016 165.4 99.1016 165.4C131.602 162.6 170.002 200.6 170.002 200.6L174.402 219.4C174.802 221 175.602 222.4 176.802 223.4C178.902 227 183.002 237.8 181.602 244.4Z" fill="#C99589"/>
<path d="M176.8 223.5C157.7 222.5 143.6 219.7 128.5 192.6C141.3 203.9 156.4 208.2 172.3 210.2L174.4 219.4C174.8 221.1 175.6 222.5 176.8 223.5Z" fill="#A56663"/>
<path d="M216.3 103C218.1 111.4 219 118.2 214.1 140.6C209.2 163 218.6 185.4 195 205.9C179.1 219.7 151.3 222.3 129.1 207.2C121.6 202.1 114.7 195 109.1 185.7C104.7 178.4 99.5998 171.5 93.8998 165.2C85.9998 156.6 76.4998 139.3 81.1998 108.7C88.7998 58.9004 138.1 53.2004 167.2 58.7004C196.3 64.2004 211.4 80.8004 216.3 103Z" fill="#C99589"/>
<path d="M120.599 142.1C120.599 142.1 117.499 127.1 102.899 128.9C90.299 130.5 85.899 160.7 114.499 169.1" fill="#C99589"/>
<path d="M108.78 139.22C107.15 138.54 105.67 138.43 104.38 138.86C103.1 139.28 102.21 140.16 101.61 141.06C101.02 141.95 100.67 142.93 100.48 143.73C100.38 144.13 100.32 144.51 100.29 144.84C100.27 145.11 100.25 145.51 100.34 145.87L103.25 145.14C103.29 145.3 103.26 145.33 103.28 145.1C103.29 144.93 103.33 144.7 103.4 144.42C103.53 143.86 103.77 143.24 104.11 142.72C104.45 142.21 104.85 141.86 105.32 141.71C105.77 141.56 106.49 141.52 107.62 141.99L108.78 139.22ZM111.89 149.29C112.2 146.87 112.22 144.76 111.81 143.07C111.38 141.33 110.44 139.9 108.77 139.21L107.63 141.99C108.16 142.21 108.62 142.67 108.89 143.78C109.17 144.94 109.2 146.62 108.91 148.91L111.89 149.29ZM113.6 155.4C114.14 154.56 114.41 154.14 114.41 154.14C114.41 154.14 114.41 154.14 114.4 154.14C114.39 154.14 114.36 154.11 114.32 154.09C114.25 154.04 114.14 153.95 114 153.84C113.73 153.61 113.37 153.27 113.02 152.83C112.32 151.95 111.74 150.75 111.89 149.26L108.9 148.96C108.65 151.47 109.66 153.42 110.67 154.69C111.17 155.32 111.69 155.81 112.08 156.14C112.28 156.3 112.44 156.43 112.57 156.52C112.63 156.56 112.68 156.6 112.72 156.63C112.74 156.64 112.76 156.65 112.77 156.66C112.77 156.66 112.78 156.66 112.79 156.67C112.79 156.67 113.06 156.25 113.6 155.41V155.4ZM100.34 145.86C100.54 146.66 101.36 147.15 102.16 146.95C102.96 146.75 103.45 145.93 103.25 145.13L100.34 145.86ZM108.2 140.6L107.62 141.98H107.63L108.2 140.6ZM110.4 149.1L108.91 148.91C108.91 148.91 108.91 148.94 108.91 148.95L110.4 149.1ZM112.79 156.66C113.49 157.11 114.42 156.9 114.86 156.2C115.31 155.5 115.1 154.57 114.4 154.13L112.78 156.66H112.79Z" fill="#423232"/>
<path d="M189.899 165.1C189.899 165.1 193.699 165.3 197.299 161C199.299 158.6 200.999 155.6 199.899 154.7C198.799 153.7 180.699 156.5 179.499 158.9C178.299 161.3 185.299 165.1 189.899 165.1Z" fill="#A56663"/>
<path d="M197.9 152.35C198.89 154.08 198.73 156.55 197.16 158.89C195.61 161.19 192.74 163.23 188.69 163.82L189.12 166.79C193.96 166.08 197.6 163.61 199.65 160.57C201.68 157.56 202.21 153.83 200.51 150.86L197.91 152.35H197.9ZM192.9 131.5C191.9 131.52 191.4 131.53 191.4 131.53C191.4 131.53 191.4 131.55 191.4 131.56C191.4 131.58 191.4 131.62 191.4 131.66C191.4 131.74 191.4 131.86 191.42 132.01C191.44 132.31 191.47 132.75 191.53 133.3C191.65 134.4 191.87 135.98 192.29 137.89C193.13 141.71 194.75 146.88 197.89 152.34L200.49 150.84C197.53 145.7 196 140.83 195.22 137.24C194.83 135.45 194.62 133.98 194.51 132.98C194.46 132.48 194.43 132.09 194.41 131.83C194.41 131.7 194.4 131.6 194.39 131.54C194.39 131.51 194.39 131.49 194.39 131.47V131.46C194.39 131.46 193.89 131.47 192.89 131.49L192.9 131.5ZM188.68 163.82C187.86 163.94 187.29 164.7 187.41 165.52C187.53 166.34 188.29 166.91 189.11 166.79L188.68 163.82ZM194.4 131.47C194.38 130.64 193.7 129.98 192.87 130C192.04 130.02 191.38 130.7 191.4 131.53L194.4 131.47Z" fill="#423232"/>
</g>
</g>
<defs>
<clipPath id="clip0_1930_138896">
<rect width="300" height="300" fill="white"/>
</clipPath>
</defs>
</svg>
